<svg xmlns="http://www.w3.org/2000/svg" version="1.1" xmlns:xlink="http://www.w3.org/1999/xlink" xmlns:svgjs="http://svgjs.dev/svgjs" width="1500" height="935" viewBox="0 0 1500 935"><g transform="matrix(1,0,0,1,-0.9090909090909918,0.3785425101214628)"><svg viewBox="0 0 396 247" data-background-color="#e13f2a" preserveAspectRatio="xMidYMid meet" height="935" width="1500" xmlns="http://www.w3.org/2000/svg" xmlns:xlink="http://www.w3.org/1999/xlink"><g id="tight-bounds" transform="matrix(1,0,0,1,0.2400000000000091,-0.09999999999999432)"><svg viewBox="0 0 395.52 247.2" height="247.2" width="395.52"><g><svg></svg></g><g><svg viewBox="0 0 395.52 247.2" height="247.2" width="395.52"><g transform="matrix(1,0,0,1,98.75035434782609,47.215199999999996)"><svg viewBox="0 0 198.0192913043478 152.7696" height="152.7696" width="198.0192913043478"><g><svg viewBox="0 0 198.0192913043478 152.7696" height="152.7696" width="198.0192913043478"><g><svg viewBox="0 0 198.0192913043478 152.7696" height="152.7696" width="198.0192913043478"><g><svg viewBox="0 0 198.0192913043478 152.7696" height="152.7696" width="198.0192913043478"><g id="textblocktransform"><svg viewBox="0 0 198.0192913043478 152.7696" height="152.7696" width="198.0192913043478" id="textblock"><g><svg viewBox="0 0 198.0192913043478 152.7696" height="152.7696" width="198.0192913043478"><g transform="matrix(1,0,0,1,0,0)"><svg width="198.0192913043478" viewBox="-2.1 -31.2 47.7 36.8" height="152.7696" data-palette-color="#ffffff"><path d="M28.6-13.5L28.6-13.5Q26.1-13.5 23.95-13.9L23.95-13.9Q24.65-11.7 26.9-3.95L26.9-3.95Q27.6-1.7 29.1 0.6L29.1 0.6Q31.15 3.55 32.9 3.55L32.9 3.55Q35 3.55 36.4-0.7L36.4-0.7Q36.65-1.7 36.93-1.7 37.2-1.7 37.33-1.13 37.45-0.55 37.45-0.35L37.45-0.35Q37.45 0.9 36.05 2.85L36.05 2.85Q34.2 5.6 32 5.6 29.8 5.6 27.95 3.4 26.1 1.2 24.33-4.63 22.55-10.45 22.55-12.05L22.55-12.05Q22.55-12.3 22.6-12.45L22.6-12.45Q16.6-4.5 14-1.95L14-1.95Q8.2 3.7 2.15 3.7L2.15 3.7Q-2.1 3.7-2.1 0.5L-2.1 0.5Q-2.1-1.1-1.1-3.03-0.1-4.95 1.35-6.4 2.8-7.85 3.9-7.85L3.9-7.85Q4.1-7.85 4.1-7.75L4.1-7.75Q4.1-7.5 2.85-6.5 1.6-5.5 0.45-3.68-0.7-1.85-0.7-0.35L-0.7-0.35Q-0.7 2.3 2.85 2.3L2.85 2.3Q9.5 2.3 21.15-13.3L21.15-13.3Q21.8-14.15 22.25-14.5L22.25-14.5 21.45-14.8Q20.8-14.55 20.4-14.55L20.4-14.55Q19.35-14.55 19.35-15.4L19.35-15.4Q19.35-16.55 20.9-16.9L20.9-16.9Q21.1-16.95 21.25-16.95L21.25-16.95Q22.15-16.95 23.35-16.05L23.35-16.05Q27.75-20.95 27.85-21.05L27.85-21.05Q31.5-24.8 32.77-24.8 34.05-24.8 34.05-23.7L34.05-23.7Q34.05-23.2 33.83-22.75 33.6-22.3 33.3-22.3L33.3-22.3Q33-22.2 33-22.6L33-22.6Q33-22.8 33.3-23.2L33.3-23.2Q33.35-23.9 32.85-23.9L32.85-23.9Q31.25-23.9 25.1-15.4L25.1-15.4Q26.6-15.3 27.6-15.3L27.6-15.3Q39.2-15.3 42.1-21.3L42.1-21.3Q42.7-22.6 42.7-23.7L42.7-23.7Q42.7-25.9 40.7-27.5L40.7-27.5Q37.5-30.1 30.3-30.1 23.1-30.1 15.6-26.45L15.6-26.45Q6.5-22 6.5-16L6.5-16Q6.5-14.05 8.95-14.05 11.4-14.05 14.15-15.85 16.9-17.65 17.85-19.4L17.85-19.4Q18.2-20.05 18.53-20.05 18.85-20.05 18.7-19.65L18.7-19.65Q17.75-16.85 14.48-14.88 11.2-12.9 7.65-12.9 4.1-12.9 4.1-15.15L4.1-15.15Q4.1-15.3 4.1-15.5L4.1-15.5Q4.85-22.05 12.13-26.63 19.4-31.2 29.65-31.2L29.65-31.2Q39.2-31.2 43.2-27.9L43.2-27.9Q45.6-25.9 45.6-23.2L45.6-23.2Q45.6-22.05 45.05-20.7L45.05-20.7Q43.5-17.05 38.7-15.28 33.9-13.5 28.6-13.5Z" opacity="1" transform="matrix(1,0,0,1,0,0)" fill="#ffffff" class="wordmark-text-0" data-fill-palette-color="primary" id="text-0"></path></svg></g></svg></g></svg></g></svg></g></svg></g></svg></g></svg></g><g><path d="M0 123.6c0-68.262 55.338-123.6 123.6-123.6 30.402 0 58.24 10.976 79.768 29.183l-11.147 0c-19.26-14.022-42.974-22.294-68.621-22.295-64.458 0-116.712 52.254-116.712 116.712 0 64.458 52.254 116.712 116.712 116.712 25.647 0 49.361-8.272 68.621-22.295l11.147 0c-21.528 18.206-49.366 29.183-79.768 29.183-68.262 0-123.6-55.338-123.6-123.6z" fill="#e13f2a" stroke="transparent" data-fill-palette-color="tertiary"></path></g></svg></g><defs></defs></svg><rect width="395.52" height="247.2" fill="none" stroke="none" visibility="hidden"></rect></g></svg></g></svg>